{"title":"Mr Robot S02E01 Legendado 1080p WEB-DL x264-PEISR","uid":15462371,"size":802282237,"categoryP":"video","categoryS":"tv_shows","magnet":"?xt=urn:btih:08418ea38acd2d3ecd055d0ff1efcbe437d74510&amp;dn=Mr+Robot+S02E01+Legendado+1080p+WEB-DL+x264-PEISR&amp;tr=udp%3A%2F%2Ftracker.leechers-paradise.org%3A6969&amp;tr=udp%3A%2F%2Fzer0day.ch%3A1337&amp;tr=udp%3A%2F%2Fopen.demonii.com%3A1337&amp;tr=udp%3A%2F%2Ftracker.coppersurfer.tk%3A6969&amp;tr=udp%3A%2F%2Fexodus.desync.com%3A6969","seeders":2,"leechers":1,"uploader":"VitorPIRA","files":2,"time":1470060958,"description":"http://extraimago.com/images/2016/08/01/11dc2f87cc6ef2baadb9e60052a77759.jpg\r\n\r\n \nhttp://www.imdb.com/title/tt4158110 \r\n\r\n\r\n\r\nElliot é um jovem programador que trabalha como engenheiro de segurança virtual durante o dia, e como hacker vigilante durante a noite. Elliot se vê numa encruzilhada quando o líder de um misterioso grupo de hacker o recruta para destruir a firma que ele é pago para proteger. \r\n\r\nVideo\r\nID                                       : 1\r\nFormat                                   : AVC\r\nFormat/Info                              : Advanced Video Codec\r\nFormat profile                           :   \r\nFormat settings, CABAC                   : Yes\r\nFormat settings, ReFrames                : 4 frames\r\nCodec ID                                 : V_MPEG4/ISO/AVC\r\nDuration                                 : 41 min\r\nBit rate                                 : 2 443 kb/s\r\nWidth                                    : 1 920 pixels\r\nHeight                                   : 1 080 pixels\r\nDisplay aspect ratio                     : 16:9\r\nFrame rate mode                          : Variable\r\nFrame rate                               : 23.976 (24000/1001) FPS\r\nColor space                              : YUV\r\nChroma subsampling                       : 4:2:0\r\nBit depth                                : 8 bits\r\nScan type                                : Progressive\r\nBits/(Pixel*Frame)                       : 0.049\r\nStream size                              : 718 MiB (94%)\r\nDefault                                  : Yes\r\nForced                                   : No\r\n\r\n\r\nAudio\r\nID                                       : 2\r\nFormat                                   : AAC\r\nFormat/Info                              : Advanced Audio Codec\r\nFormat profile                           : LC\r\nCodec ID                                 : A_AAC\r\nDuration                                 : 41 min\r\nBit rate                                 : 158 kb/s\r\nChannel(s)                               : 2 channels\r\nChannel positions                        : Front: L R\r\nSampling rate                            : 48.0 kHz\r\nFrame rate                               : 46.875 FPS (1024 spf)\r\nCompression mode                         : Lossy\r\nStream size                              : 46.5 MiB (6%)\r\nTitle                                    : Inglês\r\nLanguage                                 : English\r\nDefault                                  : Yes\r\nForced                                   : No\r\n\r\nText\r\nID                                       : 3\r\nFormat                                   : UTF-8\r\nCodec ID                                 : S_TEXT/UTF8\r\nCodec ID/Info                            : UTF-8 Plain Text\r\nDuration                                 : 40 min\r\nBit rate                                 : 59 b/s\r\nCount of elements                        : 546\r\nStream size                              : 17.5 KiB (0%)\r\nTitle                                    : Português\r\nLanguage                                 : Portuguese\r\nDefault                                  : Yes\r\nForced                                   : No\r\n \nhttp://extraimago.com/images/2016/08/01/caf80ce80e0f87afca1dc24b5d8da262.jpg","torrent":{"xt":"urn:btih:08418ea38acd2d3ecd055d0ff1efcbe437d74510","amp;dn":"Mr+Robot+S02E01+Legendado+1080p+WEB-DL+x264-PEISR","amp;tr":["udp%3A%2F%2Ftracker.leechers-paradise.org%3A6969","udp%3A%2F%2Fzer0day.ch%3A1337","udp%3A%2F%2Fopen.demonii.com%3A1337","udp%3A%2F%2Ftracker.coppersurfer.tk%3A6969","udp%3A%2F%2Fexodus.desync.com%3A6969"],"infoHash":"08418ea38acd2d3ecd055d0ff1efcbe437d74510","infoHashBuffer":{"type":"Buffer","data":[8,65,142,163,138,205,45,62,205,5,93,15,241,239,203,228,55,215,69,16]},"announce":[],"urlList":[]}}